<?xml version="1.0" encoding="iso-8859-1"?>
<!-- Generator: Adobe Illustrator 19.0.0, SVG Export Plug-In . SVG Version: 6.00 Build 0)  -->
<svg version="1.1" id="Layer_1" xmlns="http://www.w3.org/2000/svg" xmlns:xlink="http://www.w3.org/1999/xlink" x="0px" y="0px"
	 viewBox="0 0 503.322 503.322" style="enable-background:new 0 0 503.322 503.322;" xml:space="preserve">
<g>
	<g>
		<path style="fill:#CAD3DB;" d="M43.39,195.253c-23.925,0-43.39-19.465-43.39-43.39V56.405c0-4.79,3.879-8.678,8.678-8.678
			s8.678,3.888,8.678,8.678v95.458c0,14.353,11.681,26.034,26.034,26.034s26.034-11.681,26.034-26.034V56.405
			c0-4.79,3.879-8.678,8.678-8.678c4.799,0,8.678,3.888,8.678,8.678v95.458C86.78,175.788,67.315,195.253,43.39,195.253"/>
		<path style="fill:#CAD3DB;" d="M43.39,255.999c-4.799,0-8.678-3.888-8.678-8.678v-60.746c0-4.79,3.879-8.678,8.678-8.678
			s8.678,3.888,8.678,8.678v60.746C52.068,252.111,48.189,255.999,43.39,255.999"/>
		<path style="fill:#CAD3DB;" d="M43.39,195.253c-4.799,0-8.678-3.888-8.678-8.678V56.405c0-4.79,3.879-8.678,8.678-8.678
			s8.678,3.888,8.678,8.678v130.169C52.068,191.365,48.189,195.253,43.39,195.253"/>
	</g>
	<path style="fill:#E6EEF3;" d="M416.542,273.177c0-86.268-69.936-156.203-156.203-156.203s-156.203,69.936-156.203,156.203
		S174.071,429.38,260.339,429.38S416.542,359.444,416.542,273.177"/>
	<path style="fill:#CAD3DB;" d="M355.797,273.357c0,52.137-43.32,95.458-95.458,95.458s-95.458-43.32-95.458-95.458
		s43.32-95.458,95.458-95.458S355.797,221.22,355.797,273.357"/>
	<g>
		<path style="fill:#7F6E5D;" d="M43.39,455.595L43.39,455.595c-14.319,0-26.034-11.715-26.034-26.034V273.357
			c0-14.319,11.715-26.034,26.034-26.034s26.034,11.715,26.034,26.034v156.203C69.424,443.879,57.708,455.595,43.39,455.595"/>
		<path style="fill:#7F6E5D;" d="M477.288,455.595L477.288,455.595c-14.319,0-26.034-11.715-26.034-26.034V273.357
			c0-14.319,11.715-26.034,26.034-26.034c14.319,0,26.034,11.715,26.034,26.034v156.203
			C503.322,443.879,491.607,455.595,477.288,455.595"/>
	</g>
	<path style="fill:#CAD3DB;" d="M468.61,247.323l-4.842-9.693c-8.227-16.453-12.514-34.599-12.514-52.996v-32.768v-20.332
		c0-31.432,12.488-61.579,34.712-83.803v199.593H468.61z"/>
	<g>
		<path style="fill:#C0A78F;" d="M52.068,308.069c0-4.79-3.888-8.678-8.678-8.678s-8.678,3.888-8.678,8.678
			c0,4.79,3.888,8.678,8.678,8.678S52.068,312.859,52.068,308.069"/>
		<path style="fill:#C0A78F;" d="M485.966,308.069c0-4.79-3.888-8.678-8.678-8.678c-4.79,0-8.678,3.888-8.678,8.678
			c0,4.79,3.888,8.678,8.678,8.678C482.078,316.747,485.966,312.859,485.966,308.069"/>
	</g>
</g>
<g>
</g>
<g>
</g>
<g>
</g>
<g>
</g>
<g>
</g>
<g>
</g>
<g>
</g>
<g>
</g>
<g>
</g>
<g>
</g>
<g>
</g>
<g>
</g>
<g>
</g>
<g>
</g>
<g>
</g>
</svg>
